<?xml version="1.0" encoding="UTF-8"?>
<svg id="Layer_1" data-name="Layer 1" xmlns="http://www.w3.org/2000/svg" viewBox="0 0 841.89 595.28">
  <defs>
    <style>
      .cls-1 {
        fill: #fff;
      }
    </style>
  </defs>
  <g>
    <path class="cls-1" d="m309.46,219.37c-2.53-5.3-5.72-10.12-9.6-14.9-2.1-2.57-4.87-4.97-7.21-7.19-2.45,2.15-4.28,4.45-6.47,6.95-4.12,4.63-7.55,9.91-10.31,15.14,7.04,6.9,13.03,14.68,16.79,23.43,4.16-8.61,9.49-16.78,16.81-23.43"/>
    <path class="cls-1" d="m644.69,219.37c-2.52-5.3-5.72-10.12-9.64-14.9-2.08-2.57-4.84-4.97-7.18-7.19-2.48,2.15-4.28,4.45-6.5,6.95-4.11,4.63-7.53,9.91-10.29,15.14,7.04,6.9,13.01,14.68,16.8,23.43,4.16-8.61,9.48-16.78,16.82-23.43"/>
    <path class="cls-1" d="m198.39,145.73c-2-4.22-4.52-8.01-7.6-11.81-1.65-2.02-3.85-3.91-5.69-5.66-1.96,1.67-3.39,3.5-5.15,5.49-3.24,3.65-5.95,7.83-8.15,11.98,5.57,5.44,10.32,11.6,13.3,18.52,3.29-6.81,7.5-13.27,13.29-18.52"/>
    <path class="cls-1" d="m162.88,172.31c6.15,6.49,10.78,14.29,13.52,22.81-.02-8.95,2.03-17.78,5.93-25.84-2.99-6.92-7.32-13.32-12.88-18.76-3.65,6.9-5.83,14.3-6.57,21.79"/>
    <path class="cls-1" d="m207.7,172.31c-6.16,6.49-10.8,14.29-13.51,22.81,0-8.95-2.05-17.78-5.93-25.84,2.98-6.92,7.3-13.32,12.89-18.76,3.64,6.9,5.82,14.3,6.56,21.79"/>
    <path class="cls-1" d="m451.92,212.14h-8.32v150.37h150.37v-8.33c0-78.31-63.73-142.04-142.05-142.04m8.31,133.73v-116.81c56.69,3.72,102.77,44.59,114.31,98.64l-114.31,18.17Z"/>
    <path class="cls-1" d="m276.6,354.18v8.33h150.38v-150.37h-8.31c-78.34,0-142.08,63.73-142.08,142.04m133.75-8.32l-114.3-18.17c11.57-54.06,57.64-94.92,114.3-98.64v116.81Z"/>
    <path class="cls-1" d="m443.26,381.62c0,78.35,63.72,142.05,142.06,142.05h8.31v-150.35h-150.37v8.3Zm133.73,8.32v116.85c-62.85-4.15-112.68-53.97-116.81-116.85h116.81Z"/>
    <polygon class="cls-1" points="724.45 154.02 724.45 363.64 743.4 363.64 743.4 137.9 724.45 154.02"/>
    <path class="cls-1" d="m683.59,346.19h-46.61v-43.99l5.73-14.91h-30.35l5.65,14.91v62.96h84.62s-.1-8.17-.1-18.18v-209.07l-18.93,16.12v192.16Z"/>
    <path class="cls-1" d="m207.08,202.8l-17.59,17.58,17.59,17.6,9.2-9.2h28.22v116.81c-62.87-4.14-112.7-53.95-116.82-116.81h28.11l9.2,9.2,17.61-17.6-17.61-17.58-9.34,9.33h-44.88v8.33c0,78.32,63.72,142.04,142.05,142.04h8.34v-150.37h-44.71l-9.36-9.33Z"/>
  </g>
  <g>
    <path class="cls-1" d="m138.99,374.7l25.66,55.02h-5.94l-8.65-18.1h-23.7l-8.57,18.1h-6.13l25.99-55.02h1.35Zm-.69,11.69l-9.43,19.92h18.81l-9.38-19.92Z"/>
    <path class="cls-1" d="m171.53,373.31h5.24v56.4h-5.24v-56.4Z"/>
    <path class="cls-1" d="m187.65,389.02h5.24v7.29c2.09-2.79,4.41-4.88,6.96-6.26s5.31-2.07,8.3-2.07,5.74.77,8.1,2.32c2.36,1.55,4.1,3.63,5.22,6.25,1.12,2.62,1.68,6.7,1.68,12.23v20.95h-5.24v-19.41c0-4.69-.2-7.82-.58-9.39-.61-2.69-1.77-4.72-3.49-6.08s-3.96-2.04-6.73-2.04c-3.17,0-6,1.05-8.51,3.14-2.51,2.09-4.16,4.69-4.96,7.78-.5,2.02-.75,5.71-.75,11.07v14.92h-5.24v-40.69Z"/>
    <path class="cls-1" d="m274.91,389.02v40.69h-5.16v-7c-2.19,2.67-4.66,4.68-7.39,6.02-2.73,1.35-5.72,2.02-8.96,2.02-5.76,0-10.68-2.09-14.76-6.26-4.08-4.18-6.11-9.26-6.11-15.24s2.06-10.87,6.17-15.04c4.11-4.16,9.06-6.24,14.85-6.24,3.34,0,6.36.71,9.07,2.13s5.08,3.55,7.13,6.39v-7.48h5.16Zm-20.93,4c-2.91,0-5.6.72-8.07,2.15-2.47,1.43-4.43,3.45-5.88,6.03-1.46,2.59-2.18,5.33-2.18,8.22s.73,5.6,2.2,8.22c1.47,2.61,3.44,4.65,5.92,6.11,2.48,1.46,5.14,2.19,7.98,2.19s5.58-.72,8.14-2.17c2.56-1.45,4.54-3.4,5.92-5.86,1.38-2.47,2.07-5.24,2.07-8.33,0-4.71-1.55-8.64-4.65-11.81-3.1-3.16-6.92-4.74-11.45-4.74Z"/>
    <path class="cls-1" d="m286.69,373.31h5.24v23c2.12-2.79,4.45-4.88,6.99-6.26s5.3-2.07,8.27-2.07,5.74.77,8.1,2.32c2.36,1.55,4.1,3.62,5.22,6.23,1.12,2.61,1.68,6.69,1.68,12.25v20.95h-5.24v-19.41c0-4.69-.19-7.82-.56-9.39-.65-2.69-1.83-4.72-3.53-6.08-1.71-1.36-3.95-2.04-6.71-2.04-3.17,0-6,1.05-8.51,3.14-2.51,2.09-4.16,4.69-4.96,7.78-.5,2-.75,5.68-.75,11.07v14.92h-5.24v-56.4Z"/>
    <path class="cls-1" d="m374.02,373.31v56.4h-5.16v-7c-2.2,2.67-4.66,4.68-7.39,6.02-2.73,1.35-5.72,2.02-8.96,2.02-5.76,0-10.68-2.09-14.76-6.26-4.08-4.18-6.11-9.26-6.11-15.24s2.06-10.87,6.17-15.04c4.11-4.16,9.06-6.24,14.85-6.24,3.34,0,6.36.71,9.07,2.13,2.7,1.42,5.08,3.55,7.13,6.39v-23.19h5.16Zm-20.93,19.71c-2.91,0-5.6.72-8.07,2.15-2.47,1.43-4.43,3.45-5.88,6.03-1.46,2.59-2.19,5.33-2.19,8.22s.74,5.6,2.2,8.22c1.47,2.61,3.44,4.65,5.92,6.11,2.48,1.46,5.14,2.19,7.98,2.19s5.58-.72,8.14-2.17c2.56-1.45,4.54-3.4,5.92-5.86,1.38-2.47,2.07-5.24,2.07-8.33,0-4.71-1.55-8.64-4.65-11.81-3.1-3.16-6.92-4.74-11.45-4.74Z"/>
    <path class="cls-1" d="m426.43,389.02v40.69h-5.16v-7c-2.19,2.67-4.66,4.68-7.39,6.02-2.73,1.35-5.72,2.02-8.96,2.02-5.76,0-10.68-2.09-14.75-6.26-4.08-4.18-6.11-9.26-6.11-15.24s2.06-10.87,6.17-15.04c4.12-4.16,9.06-6.24,14.85-6.24,3.34,0,6.36.71,9.07,2.13,2.7,1.42,5.08,3.55,7.13,6.39v-7.48h5.16Zm-20.93,4c-2.91,0-5.6.72-8.07,2.15-2.47,1.43-4.43,3.45-5.88,6.03-1.46,2.59-2.19,5.33-2.19,8.22s.74,5.6,2.2,8.22,3.44,4.65,5.92,6.11c2.48,1.46,5.14,2.19,7.98,2.19s5.58-.72,8.15-2.17c2.56-1.45,4.54-3.4,5.92-5.86,1.38-2.47,2.07-5.24,2.07-8.33,0-4.71-1.55-8.64-4.65-11.81-3.1-3.16-6.92-4.74-11.45-4.74Z"/>
  </g>
</svg>